# Blender v2.74 (sub 0) OBJ File: 'hexagon.blend'
# www.blender.org
mtllib hexagon.mtl
o Hexagonal_Prism
v -1.111720 -0.880024 1.904203
v -1.111720 1.330463 1.904203
v -2.217024 1.330463 -0.010164
v -2.217024 -0.880024 -0.010164
v 2.204076 -0.880024 -0.010164
v 1.098772 -0.880024 1.904203
v 1.098772 1.330463 1.904203
v -1.111720 -0.880024 -1.924502
v 1.098772 -0.880024 -1.924502
v -1.111720 1.330463 -1.924502
v 2.204076 1.330463 -0.010164
v 1.098772 1.330463 -1.924502
v 2.204076 0.225220 -0.010164
v 1.651424 0.225220 0.947020
v 1.098772 0.225220 1.904203
v -0.006474 0.225220 1.904203
v -1.111720 0.225220 1.904203
v -2.217024 0.225220 -0.010164
v -1.664372 0.225220 0.947020
v -1.664372 0.225220 -0.967333
v -1.111720 0.225220 -1.924502
v -0.006474 0.225220 -1.924502
v 1.098772 0.225220 -1.924502
v 1.651424 0.225220 -0.967333
v -0.002885 0.228809 -1.924502
v 0.000728 0.225220 -1.924502
v 1.098772 -0.865712 -1.924502
vt 0.182608 0.000428
vt 0.291537 0.096052
vt 0.145254 0.145959
vt 0.071191 0.074260
vt 0.299532 0.901197
vt 0.145961 0.854748
vt 0.360849 0.652060
vt 0.410759 0.798342
vt 0.322659 0.999900
vt 0.442374 0.940046
vt 0.506711 0.822889
vt 0.506381 0.689411
vt 0.096052 0.708467
vt 0.207279 0.605612
vt 0.098804 0.299528
vt 0.000102 0.188300
vt 0.000100 0.322654
vt 0.422001 0.432550
vt 0.310585 0.506382
vt 0.347939 0.360850
vt 0.432547 0.577995
vt 0.201657 0.410757
vt 0.060413 0.442267
vt 0.177108 0.506709
vt 0.060716 0.442789
vt 0.394390 0.207280
vt 0.493091 0.318510
vt 0.493094 0.184154
vt 0.316086 0.000100
vt 0.433241 0.064439
vt 0.188304 0.999900
vt 0.074262 0.928812
vt 0.000429 0.817396
vt 0.000100 0.683919
vt 0.206980 0.604334
vt 0.065217 0.566373
vt 0.184152 0.506909
vt 0.064437 0.566763
vt 0.318506 0.506909
vt 0.059953 0.442370
vn -0.866000 0.000000 0.500000
vn 0.000000 -1.000000 0.000000
vn 0.000000 0.000000 1.000000
vn 0.866000 0.000000 0.500000
vn -0.866000 0.000000 -0.500000
vn 0.866000 0.000000 -0.500000
vn 0.000000 0.000000 -1.000000
vn 0.000000 1.000000 0.000000
vn 0.000100 0.000000 -1.000000
vn -0.000100 0.000000 -1.000000
usemtl None
s off
f 3/1/1 19/2/1 2/3/1
f 19/1/1 3/3/1 18/4/1
f 1/5/2 4/6/2 5/7/2
f 1/5/2 5/7/2 6/8/2
f 17/9/3 1/5/3 16/10/3
f 6/8/3 15/11/3 16/10/3
f 15/11/4 6/8/4 14/12/4
f 4/6/2 8/13/2 9/14/2
f 4/6/2 9/14/2 5/7/2
f 3/3/5 10/15/5 20/16/5
f 20/16/5 10/15/5 21/17/5
f 13/18/6 24/19/6 11/20/6
f 5/7/4 13/21/4 14/12/4
f 10/15/7 12/22/7 25/23/7
f 12/22/7 23/24/7 26/25/7
f 12/22/6 11/20/6 24/19/6
f 2/2/8 7/26/8 3/3/8
f 7/26/8 11/20/8 3/3/8
f 3/3/8 11/20/8 10/15/8
f 11/20/8 12/22/8 10/15/8
f 11/20/4 7/26/4 14/27/4
f 15/28/4 14/27/4 7/26/4
f 17/29/3 16/30/3 2/2/3
f 7/26/3 2/2/3 16/30/3
f 19/31/1 18/32/1 4/6/1
f 1/5/1 17/9/1 19/31/1
f 4/6/5 18/32/5 20/33/5
f 20/33/5 21/34/5 8/13/5
f 27/35/7 26/36/7 23/37/7
f 8/13/7 21/34/7 22/38/7
f 13/21/6 5/7/6 24/39/6
f 27/35/6 23/37/6 24/39/6
f 6/8/4 5/7/4 14/12/4
f 13/18/4 11/20/4 14/27/4
f 15/28/3 7/26/3 16/30/3
f 1/5/3 6/8/3 16/10/3
f 17/29/1 2/2/1 19/1/1
f 1/5/1 19/31/1 4/6/1
f 18/4/5 3/3/5 20/16/5
f 4/6/5 20/33/5 8/13/5
f 10/15/9 25/23/9 22/40/9
f 22/40/7 25/23/7 26/25/7
f 9/14/7 22/38/7 26/36/7
f 5/7/6 9/14/6 24/39/6
f 23/24/6 12/22/6 24/19/6
f 25/23/10 12/22/10 26/25/10
f 9/14/6 27/35/6 24/39/6
f 21/17/7 10/15/7 22/40/7
f 22/38/7 9/14/7 8/13/7
f 9/14/7 26/36/7 27/35/7
